<?xml version="1.0" encoding="UTF-8" standalone="no"?>
<svg
   id="Capa_1"
   data-name="Capa 1"
   viewBox="0 0 1638400 1048576"
   version="1.1"
   width="1638400"
   height="1048576"
   xmlns="http://www.w3.org/2000/svg"
   xmlns:svg="http://www.w3.org/2000/svg">
  <defs
     id="defs266" />
  <path
     d="m 930.93461,330.18416 a 202.39,202.39 0 0 0 -43.83,-80.24 c -13.27,-15 -28.73,-27 -46.11001,-36.92 -54,-30.91 -110.18,-33.53 -167.18,-9.37 -22.08,9.36 -41.31,24 -57.84,41.11 -5.32,5.52 -10.47,11.47 -15.41,17.59 -2.14,2.37 -4,4.83 -6.11,7.28 -7.19,-8.6 -13.55,-17.2 -20.93,-24.85 -16.54,-17.21 -35.76,-31.78 -57.85,-41.12 -57,-24.16 -113.19,-21.53 -167.18,9.38 -17.37,10 -32.83,21.89 -46.1,36.92 a 202.32,202.32 0 0 0 -43.83,80.22 q -22.85,81.12 12.65,157.94 c 12.29,26.69 29.35,50.56 48.17,73.26 10.72,12.89 22.31,25.18 34.17,37.14 13.25,13.39 27,26.24 41,38.95 14.58,13.29 29.54,26.23 44.5,39.13 15.13,13.06 30.44,25.92 45.72,38.82 q 33.79,28.5 67.65,56.94 10.32,8.7 20.47,17.55 c 4.71,4.12 13,9.22 21.85,9.09 8.45,0 17.38,-5.14 21.89,-9.09 q 10.14,-8.88 20.47,-17.55 33.81,-28.5 67.65,-56.94 c 15.28,-12.9 30.59,-25.76 45.73,-38.82 15,-12.9 29.91,-25.81 44.49,-39.13 13.94,-12.71 27.73,-25.59 41,-38.95 11.86001,-12 23.45001,-24.25 34.17001,-37.14 18.81,-22.7 35.84,-46.6 48.15,-73.26 q 35.45,-76.72 12.64,-157.94 z"
     id="path261"
     style="fill:#ff0000" />
</svg>
