<svg id="Capa_1" data-name="Capa 1" xmlns="http://www.w3.org/2000/svg" viewBox="0 0 1280 1024"><path d="M237,175.6c9.15-13.81,14.8-15.4,30.66-8.55,22.89,9.9,45.67,20.07,68.69,29.67,14.34,6,22.49,16.22,25.19,31.45,2.55,14.36,5.94,28.58,8.59,42.92,1,5.29,3.07,7.14,8.72,7.1,40.54-.28,400.22-.17,539.52-.09,5.62,0,11.44.11,16.81,1.53a34.9,34.9,0,0,1,25.12,41q-24.45,119.69-49.18,239.3c-4.28,20.7-17.56,30.65-40.26,30.65q-199.75,0-399.51,0c-9.2,0-18.39,0-27.58,0-2.28,0-4.56.2-7.55.34,3.49,16.92,6.84,33.21,10.35,50.3,3.16,0,426.17.1,429.82.84a17.48,17.48,0,0,1-1,34.39,59.53,59.53,0,0,1-9.16.54q-206.82,0-413.66,0c-24.9,0-36.84-9.78-41.81-33.94Q369,440.47,327.34,237.82c-1.07-5.23-3.45-7.89-8.31-9.92-22.14-9.26-44-19.1-66.16-28.4-7-3-12.65-7-15.87-14ZM875.81,555c16.61-80.67,33.06-160.52,49.55-240.6H379.67c.2,2.06.21,3.48.49,4.85Q403.59,433,426.88,546.77c1.36,6.69,3.9,8.37,10.54,8.36q215-.32,429.92-.16Z"/><path d="M540.4,705.83a63.7,63.7,0,0,1,64,63.67c-.08,34.74-28.76,63.46-63.5,63.59a63.63,63.63,0,0,1-.46-127.26ZM512.63,769a28.13,28.13,0,0,0,27.91,28.62,28.14,28.14,0,0,0,.12-56.27A27.87,27.87,0,0,0,512.63,769Z"/><path d="M700.47,769.42a63.62,63.62,0,0,1,127.24-.09c.08,35-29,63.92-64,63.76A63.74,63.74,0,0,1,700.47,769.42ZM736,769A28,28,0,1,0,764,741.3,28.1,28.1,0,0,0,736,769Z"/><path d="M776.89,370.53c10.65,0,17.38,4.42,19.76,12.6a17.84,17.84,0,0,1-15.2,22.71,42.52,42.52,0,0,1-5.65.16H529.05c-1.42,0-2.84.05-4.24,0-10.46-.65-17.94-8.42-17.64-18.3.29-9.61,7.7-17,18-17.06C552.75,370.41,735.41,370.48,776.89,370.53Z"/><path d="M652.12,498.22q-54.4,0-108.81,0a36.62,36.62,0,0,1-9.78-.88c-8.1-2.31-13-9.88-12.33-18.38a17.65,17.65,0,0,1,15.36-16,40.74,40.74,0,0,1,5.64-.18H762.65c1.41,0,2.84-.05,4.24.08,9.64.86,16.59,8.39,16.5,17.84s-7,17.1-16.81,17.38c-13.41.38-26.84.17-40.27.18Z"/></svg>